<svg width="62" height="60" viewBox="0 0 62 60" fill="none" xmlns="http://www.w3.org/2000/svg">
<g clip-path="url(#clip0_250_81)">
<path d="M31.0004 0C13.8719 0 0 13.764 0 30.7592C0 44.3708 8.87375 55.8663 21.196 59.9399C22.7455 60.2099 23.3256 59.2871 23.3256 58.4797C23.3256 57.7496 23.2881 55.3287 23.2881 52.7502C15.5002 54.1732 13.4867 50.8669 12.8671 49.139C12.5164 48.2535 11.0072 45.5224 9.68605 44.7923C8.6025 44.2146 7.05202 42.7915 9.64851 42.7544C12.0907 42.7172 13.8352 44.9849 14.4174 45.9076C17.2072 50.5613 21.6636 49.2512 23.4456 48.443C23.7152 46.4452 24.529 45.0994 25.4216 44.3291C18.5231 43.5618 11.3181 40.9082 11.3181 29.142C11.3181 25.7985 12.5178 23.0303 14.4938 20.8771C14.1836 20.1069 13.1 16.9535 14.8041 12.7244C14.8041 12.7244 17.3998 11.917 23.3302 15.8777C25.8105 15.1848 28.4436 14.8398 31.0799 14.8398C33.7138 14.8398 36.3499 15.1878 38.8296 15.8777C44.7599 11.8792 47.3533 12.7244 47.3533 12.7244C49.0596 16.9528 47.973 20.1069 47.6636 20.8771C49.6396 23.0303 50.8416 25.7583 50.8416 29.142C50.8416 40.9454 43.5953 43.5588 36.6977 44.3291C37.8217 45.292 38.7898 47.1374 38.7898 50.0208C38.7898 54.1345 38.7524 57.4403 38.7524 58.4782C38.7524 59.2857 39.3346 60.2486 40.882 59.9415C53.1286 55.8663 62 44.3306 62 30.7592C62 13.764 48.1281 0 31.0004 0Z" fill="white"/>
</g>
<defs>
<clipPath id="clip0_250_81">
<rect width="62" height="60" fill="white"/>
</clipPath>
</defs>
</svg>
