<svg width="1440" height="555" viewBox="0 0 1440 555" fill="none" xmlns="http://www.w3.org/2000/svg">
<path d="M1730.25 0.216797C1656.17 58.4375 1578.73 111.766 1495.75 150.934C1468.84 163.634 1441.2 174.883 1412.45 179.915C1353.83 190.177 1294.39 174.151 1235.12 172.001C1159.85 169.267 1084.16 189.82 1017.54 230.135C967.415 260.473 911.017 304.477 854.312 315.52C802.799 325.551 747.383 270.969 701.765 249.672C655.039 227.862 602.78 223.216 553.434 234.436C527.583 240.315 502.438 250.544 479.254 264.991C457.084 278.81 437.771 304.526 411.487 284.315C402.8 277.634 396.794 267.339 389.328 258.923C363.38 229.679 318.005 227.393 289.94 253.919" stroke="#FFCF0F" stroke-width="0.552088" stroke-miterlimit="10"/>
<path d="M1726.98 2.04248C1654.59 61.0443 1577.95 114.932 1495.42 153.957C1467.94 166.973 1439.71 177.88 1410.46 183.497C1375.16 190.219 1339.5 187.727 1303.72 184.183C1279.3 181.766 1254.82 178.855 1230.37 178.041C1182.07 176.437 1133.59 183.377 1087.38 197.993C1060.35 206.541 1034.11 217.719 1009.1 231.418C991.527 240.994 973.257 252.086 954.518 262.887C928.163 278.033 900.873 292.587 873.144 301.907C863.189 305.266 853.18 307.951 843.161 309.715C801.742 316.975 757.866 286.227 718.4 263.606C707.82 257.513 697.558 252.004 687.736 247.966C647.363 231.221 603.333 227.019 560.718 234.313C553.38 235.567 546.082 237.162 538.844 239.094C513.036 245.981 487.913 257.106 464.525 272.055C450.675 280.911 437.828 294.092 423.695 298.256C414.994 300.822 405.846 299.921 395.67 292.595C386.779 286.194 380.434 276.302 372.689 268.174C345.809 239.916 300.07 237.425 271.198 263.61" stroke="#FFCF0F" stroke-width="0.552088" stroke-miterlimit="10"/>
<path d="M1723.71 3.86328C1653.01 63.6504 1577.16 118.093 1495.09 156.974C1467.03 170.311 1438.22 180.877 1408.46 187.069C1372.71 194.412 1336.52 192.619 1300.18 189.568C1275.36 187.488 1250.47 184.82 1225.61 184.072C1176.5 182.583 1127.22 188.919 1080.24 202.219C1052.77 209.994 1026.09 220.169 1000.65 232.692C982.73 241.421 964.155 251.567 945.142 261.402C918.373 275.175 890.708 288.315 862.482 296.78C852.366 299.839 842.194 302.293 831.996 303.905C789.763 310.52 745.033 281.256 704.85 260.456C694.102 254.84 683.669 249.857 673.696 246.264C632.773 231.521 588.64 229.091 546.082 238.103C538.759 239.649 531.475 241.54 524.248 243.752C498.479 251.646 473.377 263.667 449.79 279.122C435.814 288.282 422.749 301.529 408.353 305.899C399.48 308.592 390.178 307.827 379.845 300.879C370.743 294.757 364.066 285.272 356.043 277.428C328.235 250.157 282.124 247.46 252.452 273.3" stroke="#FFCF0F" stroke-width="0.552088" stroke-miterlimit="10"/>
<path d="M1720.45 5.68506C1651.43 66.2533 1576.38 121.259 1494.76 159.992C1466.13 173.646 1436.73 183.871 1406.47 190.646C1370.27 198.614 1333.54 197.516 1296.64 194.959C1271.43 193.22 1246.13 190.794 1220.86 190.103C1170.94 188.734 1120.85 194.461 1073.11 206.442C1045.19 213.448 1018.11 222.698 992.203 233.963C973.957 241.898 955.057 251.042 935.776 259.914C908.589 272.314 880.556 284.039 851.834 291.645C841.562 294.404 831.218 296.628 820.848 298.092C777.797 304.062 732.176 276.405 691.313 257.299C680.387 252.189 669.801 247.683 659.671 244.55C618.227 231.731 573.958 231.151 531.464 241.886C524.151 243.728 516.882 245.907 509.669 248.402C483.943 257.303 458.863 270.221 435.075 286.181C420.975 295.646 407.696 308.958 393.031 313.534C383.987 316.359 374.532 315.734 364.038 309.151C354.725 303.313 347.716 294.227 339.415 286.666C310.675 260.383 264.2 257.476 233.721 282.979" stroke="#FFCF0F" stroke-width="0.552088" stroke-miterlimit="10"/>
<path d="M1717.18 7.51074C1649.85 68.8602 1575.59 124.425 1494.43 163.018C1465.22 176.993 1435.26 186.942 1404.48 194.227C1367.84 202.898 1330.57 202.417 1293.09 200.357C1267.5 198.955 1241.79 196.776 1216.11 196.147C1165.38 194.897 1114.49 200.02 1065.97 210.681C1037.61 216.914 1010.11 225.186 983.758 235.25C965.165 242.355 945.963 250.532 926.406 258.446C898.805 269.473 870.398 279.784 841.179 286.531C830.746 288.99 820.234 290.984 809.694 292.295C765.828 297.619 719.346 271.483 677.77 254.158C666.672 249.533 655.928 245.524 645.641 242.852C603.683 231.957 559.275 233.227 516.838 245.681C509.537 247.814 502.281 250.285 495.083 253.065C469.399 262.973 444.337 276.787 420.35 293.249C406.124 303.018 392.631 316.392 377.699 321.177C368.483 324.133 358.871 323.648 348.223 317.436C338.697 311.882 331.359 303.198 322.779 295.921C293.107 270.624 246.264 267.512 214.985 292.669" stroke="#FFCF0F" stroke-width="0.552088" stroke-miterlimit="10"/>
<path d="M1713.92 9.33154C1648.27 71.4662 1574.81 127.59 1494.11 166.035C1464.31 180.326 1433.77 189.951 1402.49 197.8C1365.4 207.108 1327.59 207.309 1289.55 205.743C1263.56 204.682 1237.45 202.745 1211.35 202.174C1159.83 201.043 1108.12 205.558 1058.84 214.903C1030.02 220.367 1002.1 227.652 975.313 236.52C956.378 242.79 936.883 250.063 917.037 256.958C889.04 266.689 860.232 275.426 830.528 281.395C819.931 283.525 809.258 285.318 798.539 286.477C753.856 291.156 706.521 266.537 664.227 251C652.961 246.86 642.053 243.349 631.609 241.137C589.14 232.154 544.59 235.287 502.21 249.463C494.922 251.892 487.681 254.651 480.49 257.714C454.849 268.634 429.805 283.344 405.617 300.308C391.267 310.38 377.556 323.82 362.359 328.812C352.972 331.899 343.203 331.554 332.402 325.712C322.661 320.441 314.995 312.161 306.136 305.167C275.536 280.857 228.325 277.539 196.24 302.355" stroke="#FFCF0F" stroke-width="0.552088" stroke-miterlimit="10"/>
<path d="M1710.65 11.1572C1646.69 74.0731 1574.02 130.756 1493.78 169.057C1463.41 183.669 1432.29 192.961 1400.5 201.381C1362.95 211.326 1324.61 212.206 1286.01 211.137C1259.63 210.413 1233.11 208.724 1206.6 208.214C1154.27 207.202 1101.75 211.112 1051.7 219.134C1022.44 223.825 994.084 230.127 966.869 237.799C947.588 243.234 927.788 249.553 907.672 255.478C879.257 263.848 850.078 271.146 819.877 276.269C809.123 278.094 798.279 279.665 787.388 280.668C741.891 284.701 693.702 261.6 650.687 247.847C639.254 244.192 628.189 241.174 617.58 239.431C574.604 232.36 529.907 237.355 487.585 253.249C480.308 255.971 473.081 259.022 465.904 262.364C440.306 274.291 415.283 289.898 390.892 307.367C376.417 317.744 362.492 331.25 347.027 336.447C337.472 339.666 327.535 339.464 316.584 333.988C306.626 329.005 298.635 321.119 289.501 314.41C257.969 291.086 210.39 287.559 177.505 312.038" stroke="#FFCF0F" stroke-width="0.552088" stroke-miterlimit="10"/>
<path d="M1707.38 12.978C1645.1 76.675 1573.24 133.917 1493.45 172.075C1462.5 187.003 1430.8 195.962 1398.5 204.953C1360.51 215.532 1321.63 217.098 1282.47 216.522C1255.69 216.14 1228.76 214.693 1201.84 214.241C1148.7 213.348 1095.38 216.65 1044.57 223.355C1014.86 227.278 986.068 232.594 958.417 239.069C938.786 243.67 918.683 249.035 898.295 253.993C869.462 260.999 839.915 266.862 809.219 271.137C798.307 272.659 787.291 274.003 776.226 274.854C729.912 278.242 680.876 256.653 637.14 244.689C625.539 241.515 614.313 238.995 603.544 237.716C560.064 232.548 515.214 239.414 472.952 257.031C465.686 260.045 458.473 263.392 451.31 267.014C425.756 279.948 400.75 296.451 376.16 314.422C361.559 325.103 347.416 338.674 331.688 344.077C321.961 347.423 311.86 347.374 300.762 342.255C290.582 337.56 282.27 330.073 272.858 323.647C240.397 301.306 192.451 297.577 158.759 321.711" stroke="#FFCF0F" stroke-width="0.552088" stroke-miterlimit="10"/>
<path d="M1704.12 14.7993C1643.52 79.2816 1572.46 137.083 1493.12 175.096C1461.6 190.345 1429.31 198.967 1396.51 208.534C1358.07 219.741 1318.66 221.999 1278.93 221.92C1251.76 221.875 1224.42 220.675 1197.08 220.284C1143.14 219.511 1089.01 222.204 1037.43 227.594C1007.27 230.743 978.052 235.069 949.972 240.356C929.991 244.118 909.589 248.533 888.929 252.521C859.679 258.166 829.764 262.594 798.567 266.019C787.495 267.236 776.315 268.354 765.075 269.053C717.946 271.795 668.065 251.715 623.6 241.544C611.831 238.851 600.448 236.828 589.518 236.014C545.535 232.741 500.535 241.486 458.334 260.826C451.082 264.136 443.884 267.77 436.728 271.676C411.216 285.617 386.229 303.017 361.438 321.493C346.713 332.479 332.355 346.112 316.359 351.724C306.461 355.202 296.192 355.305 284.952 350.544C274.55 346.141 265.917 339.044 256.226 332.906C222.834 311.552 174.52 307.617 140.027 331.41" stroke="#FFCF0F" stroke-width="0.552088" stroke-miterlimit="10"/>
<path d="M1700.85 16.625C1641.94 81.8884 1571.67 140.249 1492.79 178.119C1460.69 193.684 1427.82 201.972 1394.51 212.111C1355.62 223.948 1315.67 226.895 1275.38 227.311C1247.82 227.607 1220.07 226.645 1192.32 226.316C1137.58 225.662 1082.64 227.751 1030.29 231.817C999.69 234.197 970.036 237.532 941.524 241.631C921.193 244.554 900.487 248.02 879.556 251.037C849.888 255.317 819.606 258.314 787.909 260.888C776.68 261.801 765.329 262.693 753.913 263.24C705.967 265.336 655.239 246.761 610.049 238.391C598.116 236.179 586.569 234.649 575.479 234.304C531 232.923 485.842 243.551 443.698 264.609C436.457 268.21 429.273 272.137 422.131 276.326C396.662 291.275 371.696 309.575 346.702 328.553C331.855 339.842 317.276 353.541 301.016 359.359C290.947 362.969 280.51 363.223 269.123 358.82C258.497 354.709 249.545 348.007 239.576 342.149C205.255 321.781 156.57 317.637 121.274 341.088" stroke="#FFCF0F" stroke-width="0.552088" stroke-miterlimit="10"/>
<path d="M1697.59 18.4468C1640.36 84.4914 1570.89 143.415 1492.46 181.137C1459.78 197.023 1426.34 204.974 1392.52 215.688C1353.18 228.154 1312.7 231.792 1271.84 232.701C1243.88 233.334 1215.73 232.619 1187.57 232.352C1132.02 231.817 1076.27 233.297 1023.16 236.048C992.103 237.655 962.016 239.995 933.077 242.91C912.396 244.99 891.386 247.51 870.184 249.562C840.094 252.473 809.447 254.043 777.255 255.77C765.868 256.378 754.346 257.044 742.759 257.439C693.999 258.89 642.428 241.816 596.506 235.246C584.406 233.515 572.701 232.479 561.446 232.602C516.471 233.104 471.156 245.623 429.069 268.404C421.839 272.302 414.669 276.516 407.542 280.989C382.116 296.945 357.168 316.141 331.977 335.62C317.005 347.214 302.212 360.979 285.684 367.002C275.443 370.743 264.839 371.155 253.309 367.105C242.458 363.29 233.178 356.999 222.941 351.404C187.653 332.109 138.639 327.673 102.536 350.783" stroke="#FFCF0F" stroke-width="0.552088" stroke-miterlimit="10"/>
<path d="M1694.32 20.2681C1638.78 87.0979 1570.1 146.577 1492.14 184.154C1458.88 200.357 1424.85 207.971 1390.53 219.261C1350.74 232.352 1309.72 236.685 1268.29 238.087C1239.95 239.061 1211.38 238.589 1182.81 238.379C1126.46 237.964 1069.9 238.835 1016.02 240.27C984.522 241.109 953.997 242.449 924.632 244.18C903.601 245.417 882.288 246.988 860.818 248.073C830.31 249.615 799.296 249.763 766.603 250.635C755.056 250.943 743.369 251.379 731.604 251.622C682.026 252.427 629.613 236.849 582.963 232.084C570.698 230.83 558.833 230.288 547.414 230.888C501.942 233.264 456.467 247.683 414.44 272.182C407.224 276.372 400.069 280.882 392.952 285.635C367.569 302.598 342.639 322.69 317.248 342.675C302.151 354.574 287.141 368.4 270.348 374.633C259.94 378.506 249.16 379.077 237.491 375.373C226.411 371.858 216.817 365.954 206.302 360.638C170.085 342.33 120.7 337.688 83.7974 360.457" stroke="#FFCF0F" stroke-width="0.552088" stroke-miterlimit="10"/>
<path d="M1691.05 22.0928C1637.2 89.7038 1569.31 149.746 1491.8 187.18C1457.97 203.703 1423.37 210.976 1388.53 222.845C1348.29 236.561 1306.74 241.585 1264.75 243.484C1236.01 244.796 1207.04 244.57 1178.06 244.422C1120.89 244.126 1063.53 244.393 1008.88 244.508C976.934 244.574 945.977 244.919 916.18 245.466C894.799 245.861 873.183 246.482 851.441 246.601C820.512 246.773 789.134 245.499 755.945 245.515C744.24 245.519 732.382 245.729 720.446 245.824C670.054 245.984 616.798 231.899 569.419 228.947C556.99 228.17 544.964 228.12 533.384 229.193C487.416 233.44 441.784 249.762 399.815 275.984C392.609 280.47 385.468 285.268 378.362 290.304C353.022 308.279 328.113 329.263 302.519 349.754C287.297 361.957 272.072 375.849 255.012 382.287C244.432 386.288 233.477 387.024 221.669 383.669C210.365 380.458 200.453 374.936 189.659 369.904C152.514 352.587 102.761 347.731 65.0513 370.159" stroke="#FFCF0F" stroke-width="0.552088" stroke-miterlimit="10"/>
<path d="M1687.79 23.9146C1635.62 92.3067 1568.47 152.731 1491.48 190.198C1457.04 206.96 1421.88 213.97 1386.54 226.419C1345.85 240.755 1303.77 246.478 1261.21 248.875C1232.08 250.528 1202.7 250.544 1173.3 250.454C1115.34 250.277 1057.17 249.936 1001.75 248.731C969.357 248.028 937.964 247.366 907.739 246.737C886.008 246.285 864.088 245.956 842.079 245.117C810.729 243.921 778.989 241.224 745.297 240.385C733.436 240.089 721.406 240.068 709.295 240.011C658.085 239.526 603.99 226.928 555.879 225.79C543.286 225.49 531.099 225.934 519.355 227.479C472.891 233.593 427.101 251.823 385.193 279.763C377.998 284.541 370.871 289.631 363.78 294.951C338.482 313.933 313.591 335.813 287.797 356.806C272.451 369.312 257.008 383.27 239.683 389.914C228.932 394.046 217.806 394.947 205.859 391.937C194.325 389.03 184.099 383.891 173.03 379.143C134.957 362.817 84.8324 357.751 46.3232 379.837" stroke="#FFCF0F" stroke-width="0.552088" stroke-miterlimit="10"/>
<path d="M1684.52 25.7358C1634.04 94.9133 1567.68 155.893 1491.15 193.215C1456.13 210.294 1420.39 216.963 1384.55 229.991C1343.4 244.948 1300.79 251.37 1257.66 254.261C1228.15 256.251 1198.35 256.514 1168.54 256.485C1109.77 256.423 1050.79 255.482 994.612 252.957C961.766 251.481 929.938 249.816 899.287 248.011C877.203 246.708 854.983 245.438 832.703 243.633C800.931 241.063 768.828 236.952 734.635 235.254C722.613 234.658 710.42 234.411 698.133 234.197C646.109 233.067 591.172 221.958 542.329 222.632C529.568 222.809 517.224 223.746 505.316 225.765C458.352 233.737 412.408 253.882 370.557 283.546C363.377 288.615 356.264 293.997 349.184 299.601C323.929 319.59 299.056 342.371 273.061 363.865C257.59 376.672 241.933 390.695 224.34 397.549C213.418 401.813 202.117 402.881 190.034 400.213C178.269 397.615 167.735 392.85 156.384 388.385C117.382 373.045 66.8903 367.775 27.5742 389.516" stroke="#FFCF0F" stroke-width="0.552088" stroke-miterlimit="10"/>
<path d="M1681.26 27.5605C1632.45 97.5191 1566.9 159.062 1490.82 196.237C1455.22 213.632 1418.91 219.959 1382.56 233.572C1340.96 249.15 1297.81 256.27 1254.13 259.654C1224.21 261.985 1194.01 262.491 1163.8 262.52C1104.22 262.577 1044.43 261.027 987.482 257.187C954.19 254.942 921.926 252.27 890.847 249.289C868.413 247.139 845.889 244.919 823.337 242.152C791.148 238.205 758.677 232.684 723.988 230.126C711.809 229.23 699.444 228.753 686.986 228.387C634.144 226.611 578.368 216.982 528.793 219.478C515.867 220.128 503.363 221.558 491.291 224.058C443.83 233.884 397.726 255.95 355.936 287.336C348.766 292.701 341.668 298.375 334.601 304.258C309.389 325.255 284.538 348.932 258.34 370.932C242.744 384.043 226.872 398.132 209.012 405.191C197.918 409.586 186.442 410.828 174.22 408.497C162.226 406.207 151.379 401.82 139.749 397.639C99.8188 383.286 48.9553 377.806 8.83936 399.209" stroke="#FFCF0F" stroke-width="0.552088" stroke-miterlimit="10"/>
<path d="M1677.99 29.3828C1630.87 100.123 1566.18 162.401 1490.49 199.255C1454.34 217.053 1417.41 222.953 1380.56 237.145C1338.51 253.344 1294.83 261.164 1250.58 265.041C1220.28 267.709 1189.67 268.457 1159.04 268.552C1098.65 268.729 1038.06 266.57 980.344 261.41C946.602 258.393 913.905 254.713 882.395 250.561C859.611 247.555 836.784 244.394 813.964 240.669C781.353 235.349 748.518 228.413 713.329 224.996C700.993 223.8 688.457 223.093 675.824 222.575C622.168 220.153 565.549 212.004 515.242 216.325C502.152 217.452 489.484 219.372 477.254 222.349C429.294 234.025 383.036 258.014 341.303 291.119C334.147 296.776 327.06 302.742 320.004 308.909C294.835 330.913 270.001 355.486 243.604 377.987C227.882 391.403 211.793 405.558 193.672 412.823C182.41 417.345 170.756 418.764 158.398 416.766C146.176 414.788 135.021 410.747 123.106 406.878C82.2688 393.417 31.0161 387.826 -9.90674 408.884" stroke="#FFCF0F" stroke-width="0.552088" stroke-miterlimit="10"/>
<path d="M1674.73 31.2046C1629.29 102.73 1565.39 165.567 1490.16 202.278C1453.44 220.392 1415.93 225.951 1378.57 240.727C1336.06 257.542 1291.86 266.061 1247.04 270.439C1216.34 273.449 1185.32 274.44 1154.28 274.592C1093.09 274.888 1031.69 272.125 973.207 265.646C939.018 261.859 905.886 257.168 873.947 251.844C850.813 247.987 827.686 243.876 804.591 239.193C771.563 232.496 738.36 224.15 702.675 219.874C690.182 218.378 677.477 217.44 664.669 216.77C610.196 213.703 552.734 207.026 501.703 213.177C488.445 214.776 475.619 217.185 463.226 220.643C414.762 234.165 368.354 260.083 326.678 294.91C319.533 300.863 312.463 307.117 305.419 313.563C280.292 336.574 255.48 362.044 228.879 385.051C213.032 398.771 196.729 412.988 178.34 420.462C166.907 425.116 155.078 426.711 142.584 425.046C130.133 423.385 118.664 419.71 106.471 416.125C64.7053 403.651 13.0812 397.854 -28.645 418.571" stroke="#FFCF0F" stroke-width="0.552088" stroke-miterlimit="10"/>
<path d="M1671.46 33.0293C1627.71 105.335 1564.61 168.732 1489.84 205.299C1452.53 223.734 1414.44 228.943 1376.58 244.303C1333.62 261.735 1288.88 270.957 1243.5 275.829C1212.41 279.175 1180.98 280.413 1149.53 280.627C1087.54 281.042 1025.32 277.671 966.08 269.875C931.441 265.316 897.881 259.614 865.51 253.122C842.026 248.41 818.595 243.357 795.233 237.712C761.783 229.634 728.216 219.886 692.031 214.751C679.377 212.954 666.505 211.786 653.522 210.964C598.231 207.252 539.926 202.047 488.166 210.027C474.744 212.095 461.754 214.997 449.2 218.936C400.233 234.296 353.675 262.15 312.06 298.696C304.926 304.941 297.87 311.486 290.84 318.217C265.756 342.235 240.962 368.605 214.164 392.11C198.193 406.134 181.672 420.416 163.019 428.096C151.414 432.882 139.413 434.658 126.777 433.322C114.098 431.982 102.314 428.672 89.8423 425.37C47.1448 413.879 -4.84339 407.877 -47.373 428.257" stroke="#FFCF0F" stroke-width="0.552088" stroke-miterlimit="10"/>
<path d="M1668.2 34.8511C1626.13 107.938 1563.83 171.894 1489.5 208.317C1451.62 227.069 1412.95 231.932 1374.58 247.88C1331.16 265.929 1285.9 275.854 1239.95 281.219C1208.47 284.907 1176.64 286.387 1144.77 286.658C1081.97 287.193 1018.95 283.217 958.935 274.098C923.85 268.77 889.854 262.052 857.054 254.393C833.224 248.826 809.486 242.827 785.852 236.229C751.985 226.773 718.05 215.619 681.369 209.62C668.558 207.523 655.514 206.125 642.36 205.151C586.255 200.793 527.104 197.06 474.616 206.874C461.026 209.414 447.879 212.806 435.16 217.226C385.686 234.424 338.979 264.215 297.424 302.483C290.304 309.024 283.259 315.861 276.243 322.871C251.202 347.901 226.425 375.163 199.428 399.173C183.332 413.501 166.596 427.85 147.675 435.74C135.9 440.657 123.724 442.614 110.952 441.607C98.0403 440.587 85.9466 437.639 73.1959 434.626C29.5701 424.121 -22.7895 417.913 -66.1226 437.948" stroke="#FFCF0F" stroke-width="0.552088" stroke-miterlimit="10"/>
<path d="M1664.93 36.6719C1624.55 110.544 1563.04 175.06 1489.18 211.334C1450.72 230.406 1411.46 234.921 1372.59 251.452C1328.72 270.118 1282.92 280.746 1236.41 286.604C1204.54 290.629 1172.3 292.356 1140.02 292.689C1076.42 293.343 1012.58 288.759 951.808 278.324C916.273 272.223 881.849 264.494 848.617 255.667C824.437 249.245 800.399 242.301 776.49 234.744C742.205 223.906 707.902 211.35 670.722 204.489C657.749 202.096 644.542 200.464 631.209 199.337C574.286 194.334 514.289 192.068 461.076 203.716C447.322 206.725 434.011 210.61 421.135 215.515C371.15 234.551 324.3 266.278 282.802 306.265C275.693 313.098 268.666 320.227 261.657 327.521C236.656 353.558 211.904 381.716 184.703 406.232C168.485 420.864 151.528 435.275 132.343 443.374C120.396 448.423 108.045 450.565 95.1376 449.878C81.9977 449.183 69.5898 446.597 56.5606 443.863C12.0028 434.345 -40.721 427.932 -84.8574 447.625" stroke="#FFCF0F" stroke-width="0.552088" stroke-miterlimit="10"/>
<path d="M1661.66 38.4976C1622.97 113.151 1562.26 178.226 1488.85 214.36C1449.81 233.749 1409.97 237.914 1370.6 255.038C1326.27 274.316 1279.94 285.651 1232.87 292.007C1200.6 296.373 1167.95 298.343 1135.26 298.733C1070.85 299.506 1006.21 294.313 944.666 282.563C908.685 275.693 873.829 266.944 840.162 256.954C815.635 249.677 791.294 241.787 767.114 233.272C732.415 221.053 697.737 207.095 660.059 199.37C646.93 196.677 633.551 194.815 620.047 193.536C562.31 187.887 501.463 187.086 447.525 200.571C433.604 204.053 420.128 208.427 407.095 213.813C356.6 234.678 309.607 268.35 268.166 310.06C261.068 317.189 254.055 324.606 247.06 332.183C222.101 359.227 197.368 388.282 169.967 413.3C153.624 428.236 136.453 442.712 117 451.017C104.885 456.193 92.3594 458.524 79.3088 458.163C65.944 457.793 53.2183 455.564 39.9141 453.118C-5.57555 444.587 -58.6671 437.968 -103.607 457.316" stroke="#FFCF0F" stroke-width="0.552088" stroke-miterlimit="10"/>
<path d="M1658.4 40.3184C1621.39 115.753 1561.47 181.391 1488.52 217.377C1448.91 237.087 1408.48 240.903 1368.61 258.61C1323.82 278.501 1276.97 290.543 1229.32 297.392C1196.67 302.096 1163.61 304.308 1130.5 304.764C1065.29 305.656 999.844 299.859 937.533 286.785C901.102 279.142 865.817 269.378 831.718 258.224C806.845 250.087 782.197 241.256 757.745 231.788C722.628 218.187 687.582 202.831 649.409 194.239C636.119 191.25 622.572 189.157 608.893 187.726C550.338 181.432 488.645 182.09 433.986 197.417C419.897 201.368 406.26 206.232 393.067 212.103C342.057 234.797 294.925 270.414 253.545 313.846C246.461 321.267 239.459 328.976 232.478 336.837C207.562 364.888 182.847 394.839 155.246 420.363C138.778 435.603 121.389 450.145 101.672 458.656C89.3856 463.963 76.6885 466.484 63.4986 466.442C49.9053 466.401 36.8654 464.531 23.2827 462.364C-23.1353 454.82 -76.5982 447.991 -122.338 467.002" stroke="#FFCF0F" stroke-width="0.552088" stroke-miterlimit="10"/>
<path d="M1655.13 42.1401C1619.81 118.36 1560.69 184.553 1488.19 220.396C1448 240.422 1406.96 243.797 1366.61 262.183C1321.34 282.588 1273.99 295.432 1225.78 302.779C1192.74 307.823 1159.26 310.278 1125.75 310.792C1059.73 311.803 993.477 305.398 930.399 291.008C893.521 282.596 857.808 271.812 823.273 259.494C798.054 250.499 773.102 240.726 748.379 230.3C712.848 215.318 677.413 198.651 638.758 189.104C625.304 185.844 611.596 183.492 597.742 181.909C538.373 174.969 475.827 177.091 420.446 194.26C406.189 198.679 392.392 204.037 379.038 210.389C327.514 234.913 280.239 272.474 238.92 317.625C231.846 325.338 224.862 333.342 217.889 341.483C193.016 370.542 168.321 401.393 140.517 427.418C123.924 442.963 106.321 457.566 86.3363 466.287C73.8784 471.726 61.0099 474.435 47.6808 474.715C33.8589 475.003 20.5048 473.49 6.64361 471.607C-40.7064 465.049 -94.5335 458.015 -141.08 476.684" stroke="#FFCF0F" stroke-width="0.552088" stroke-miterlimit="10"/>
<path d="M1651.87 43.9658C1618.22 120.967 1559.9 187.719 1487.86 223.418C1447.09 243.765 1405.47 246.799 1364.62 265.764C1318.89 286.79 1271.01 300.333 1222.24 308.173C1188.8 313.555 1154.92 316.256 1120.99 316.831C1054.17 317.962 987.107 310.952 923.264 295.243C885.937 286.058 849.799 274.258 814.828 260.777C789.262 250.922 764.025 240.155 739.009 228.824C703.089 212.387 667.254 194.383 628.106 183.982C614.495 180.421 600.616 177.839 586.587 176.104C526.4 168.519 463.004 172.1 406.902 191.111C392.477 195.999 378.516 201.845 365.008 208.687C312.967 235.036 265.556 274.546 224.294 321.42C217.231 329.429 210.261 337.721 203.302 346.145C178.472 376.211 153.796 407.959 125.791 434.486C109.074 450.335 91.2561 465.004 71.0035 473.93C58.3743 479.501 45.3344 482.399 31.8624 482.995C17.8156 483.616 4.14369 482.453 -9.99597 480.857C-58.2743 475.287 -112.473 468.042 -159.823 486.371" stroke="#FFCF0F" stroke-width="0.552088" stroke-miterlimit="10"/>
<path d="M1648.6 45.7866C1616.64 123.569 1559.12 190.884 1487.54 226.439C1446.19 247.103 1403.98 249.795 1362.63 269.341C1316.45 290.991 1268.04 305.229 1218.7 313.566C1184.87 319.289 1150.58 322.233 1116.24 322.866C1048.61 324.116 980.741 316.498 916.131 299.473C878.357 289.519 841.79 276.696 806.38 262.055C780.472 251.341 754.928 239.636 729.637 227.348C693.299 209.533 657.096 190.119 617.448 178.858C603.676 174.998 589.629 172.186 575.429 170.299C514.429 162.068 450.175 167.104 393.356 187.961C378.763 193.318 364.637 199.654 350.973 206.98C298.41 235.155 250.867 276.614 209.662 325.206C202.613 333.507 195.654 342.091 188.709 350.799C163.922 381.872 139.263 414.516 111.063 441.548C94.2201 457.702 76.1849 472.437 55.6681 481.568C42.8674 487.271 29.6561 490.362 16.0449 491.275C1.77316 492.233 -12.2165 491.419 -26.6347 490.103C-75.845 485.519 -130.408 478.07 -178.561 496.057" stroke="#FFCF0F" stroke-width="0.552088" stroke-miterlimit="10"/>
<path d="M1645.34 47.6079C1615.06 126.176 1558.34 194.046 1487.2 229.457C1445.28 250.441 1402.49 252.788 1360.64 272.918C1314 295.189 1265.06 310.125 1215.16 318.956C1180.93 325.021 1146.24 328.207 1111.49 328.902C1043.05 330.271 974.371 322.044 908.996 303.699C870.773 292.973 833.781 279.134 797.936 263.33C771.681 251.757 745.833 239.118 720.271 225.863C683.519 206.676 646.942 185.848 606.801 173.732C592.872 169.571 578.653 166.528 564.278 164.489C502.46 155.613 437.353 162.109 379.82 184.808C365.055 190.633 350.769 197.458 336.947 205.27C283.863 235.266 236.188 278.678 195.04 328.992C188.003 337.589 181.061 346.461 174.127 355.453C149.383 387.538 124.745 421.074 96.3412 448.612C79.3736 465.069 61.1242 479.866 40.3396 489.207C27.3711 495.037 13.9884 498.33 0.234385 499.555C-14.2623 500.846 -28.5698 500.382 -43.2665 499.354C-93.4087 495.756 -148.339 488.101 -197.296 505.743" stroke="#FFCF0F" stroke-width="0.552088" stroke-miterlimit="10"/>
<path d="M1642.07 49.4336C1613.48 128.782 1557.55 197.216 1486.88 232.479C1444.37 253.78 1401 255.786 1358.64 276.495C1311.56 299.387 1262.08 315.022 1211.61 324.347C1177 330.748 1141.89 334.181 1106.73 334.937C1037.49 336.422 967.997 327.595 901.855 307.93C863.185 296.435 825.79 281.506 789.484 264.613C762.904 252.131 736.732 238.605 710.895 224.388C673.725 203.827 636.779 181.58 596.139 168.609C582.049 164.148 567.666 160.876 553.116 158.684C490.484 149.162 424.481 156.995 366.269 181.663C351.326 187.924 336.887 195.271 322.908 203.568C269.298 235.39 221.491 280.75 180.408 332.783C173.381 341.672 166.454 350.84 159.53 360.111C134.829 393.203 110.209 427.636 81.6051 455.675C64.5125 472.433 46.0453 487.3 24.9964 496.846C11.8566 502.808 -1.69394 506.294 -15.5944 507.836C-30.3125 509.468 -44.9413 509.349 -59.9165 508.605C-110.987 505.994 -166.285 498.129 -216.045 515.434" stroke="#FFCF0F" stroke-width="0.552088" stroke-miterlimit="10"/>
<path d="M1638.81 51.2549C1611.9 131.385 1556.76 200.377 1486.55 235.496C1443.47 257.118 1399.51 258.783 1356.65 280.072C1309.11 303.584 1259.1 319.915 1208.07 329.737C1173.06 336.479 1137.55 340.155 1101.97 340.969C1031.93 342.572 961.627 333.137 894.717 312.157C855.601 299.888 817.777 283.957 781.036 265.887C754.11 252.554 727.633 238.082 701.525 222.907C663.941 200.973 626.621 177.313 585.484 163.482C571.237 158.717 556.683 155.218 541.961 152.875C478.511 142.708 411.659 152.02 352.726 178.509C337.615 185.248 322.997 193.047 308.878 201.857C254.683 235.377 206.809 282.814 165.782 336.57C158.769 345.754 151.853 355.21 144.944 364.761C120.285 398.861 95.6873 434.193 66.8795 462.734C49.662 479.796 30.9805 494.729 9.66388 504.481C-3.64739 510.574 -17.3657 514.258 -31.4089 516.108C-46.3484 518.077 -61.2986 518.303 -76.5487 517.843C-128.551 516.219 -184.217 508.148 -234.781 525.112" stroke="#FFCF0F" stroke-width="0.552088" stroke-miterlimit="10"/>
<path d="M1635.54 53.0767C1610.32 133.992 1555.98 203.539 1486.22 238.515C1442.56 260.453 1398.02 261.777 1354.66 283.645C1306.66 307.782 1256.12 324.808 1204.52 335.123C1169.13 342.203 1133.2 346.121 1097.21 347.001C1026.36 348.723 955.257 338.679 887.583 316.379C848.017 303.342 809.765 286.403 772.591 267.158C745.319 252.978 718.536 237.561 692.156 221.42C654.154 198.112 616.466 173.037 574.833 158.348C560.425 153.282 545.704 149.553 530.807 147.058C466.543 136.245 398.837 147.041 339.182 175.348C323.904 182.559 309.121 190.852 294.846 200.143C240.141 235.526 192.123 284.87 151.154 340.348C144.152 349.825 137.253 359.573 130.355 369.407C105.739 404.514 81.1588 440.743 52.151 469.79C34.8085 487.156 15.9092 502.15 -5.67159 512.112C-19.1542 518.337 -33.0368 522.218 -47.2265 524.38C-62.3873 526.691 -77.6589 527.262 -93.1875 527.086C-146.118 526.444 -202.152 518.172 -253.519 534.79" stroke="#FFCF0F" stroke-width="0.552088" stroke-miterlimit="10"/>
<path d="M1632.28 54.9014C1608.74 136.598 1555.2 206.709 1485.89 241.54C1441.65 263.799 1396.54 264.777 1352.66 287.225C1304.21 311.984 1253.14 329.708 1200.98 340.52C1165.19 347.941 1128.86 352.102 1092.46 353.039C1020.8 354.881 948.891 344.233 880.446 320.613C840.433 306.803 801.749 288.861 764.14 268.44C736.521 253.409 709.434 237.046 682.78 219.943C644.363 195.263 606.3 168.769 564.171 153.224C549.606 147.859 534.717 143.904 519.645 141.252C454.563 129.794 386.008 142.074 325.632 172.202C310.185 179.89 295.242 188.676 280.806 198.441C225.587 235.685 177.43 286.941 136.518 344.142C129.526 353.911 122.642 363.951 115.758 374.069C91.1851 410.183 66.6227 447.308 37.4151 476.856C19.9476 494.527 0.834045 509.587 -21.0146 519.754C-34.6686 526.11 -48.7119 530.222 -63.0551 532.664C-78.4337 535.349 -94.0302 536.228 -109.837 536.339C-163.7 536.685 -220.102 528.207 -272.272 544.484" stroke="#FFCF0F" stroke-width="0.552088" stroke-miterlimit="10"/>
<path d="M1629.01 56.7231C1607.16 139.201 1554.41 209.871 1485.56 244.558C1440.75 267.133 1395.05 267.771 1350.67 290.802C1301.77 316.182 1250.17 334.605 1197.44 345.911C1090.04 368.943 977.681 362.447 873.311 324.84C803.106 299.543 736.974 261.102 673.414 218.459C634.58 192.406 596.149 164.498 553.523 148.094C475.159 117.937 387.329 129.712 312.096 169.045C236.863 208.378 173.448 273.572 121.899 347.925C75.1171 415.397 33.0981 494.811 -36.3398 527.39C-115.754 564.646 -208.033 529.203 -291 554.163" stroke="#FFCF0F" stroke-width="0.552088" stroke-miterlimit="10"/>
</svg>
