<svg width="1319" height="478" viewBox="0 0 1319 478" fill="none" xmlns="http://www.w3.org/2000/svg">
<path d="M1342.05 477.921C1342.93 373.678 1310.92 269.471 1253.31 189.05C1236.92 166.17 1217.7 144.536 1193.46 134.5C1123.43 105.507 1048.65 168.887 989.764 204.874C918.705 248.298 848.449 293.806 774.462 330.451C732.925 351.024 684.14 368.485 643.96 344.606C603.273 320.423 587.79 264.114 570.969 215.078C551.37 157.939 524.38 102.896 484.76 61.75C445.141 20.6037 391.581 -5.37171 338.543 1.32567C297.01 6.57174 259.165 30.8369 224.605 57.8772C133.8 128.929 56.6571 222.993 0.244873 331.446" stroke="#FFCF0F" stroke-width="0.552088" stroke-miterlimit="10"/>
<path d="M1344.32 473.414C1345.1 381.283 1316.95 291.113 1267.04 213.778C1262.41 206.596 1257.64 199.533 1252.66 192.663C1236.3 170.095 1217.24 148.737 1193.35 138.623C1124.24 109.338 1050.6 169.405 991.799 204.1C939.668 234.861 887.905 267.341 834.303 296.741C815.707 306.982 796.95 316.846 777.955 326.15C736.75 346.328 688.543 363.555 648.662 340.79C608.282 317.738 592.297 263.608 575.011 216.492C554.866 161.593 527.565 108.688 488.02 69.1291C474.252 55.3561 458.845 43.3509 442.388 33.825C411.595 15.99 377.124 6.82166 342.871 10.9906C301.727 15.9982 264.157 39.2807 229.818 65.0876C160.298 117.297 98.8656 182.105 48.22 256.758C33.1055 279.034 18.9552 302.18 5.84741 326.137" stroke="#FFCF0F" stroke-width="0.552088" stroke-miterlimit="10"/>
<path d="M1346.59 468.912C1347.34 379.852 1317.69 294.678 1266.37 217.068C1261.71 210.025 1256.97 203.052 1252.01 196.285C1235.67 174.035 1216.78 152.947 1193.22 142.751C1125.04 113.17 1052.55 169.927 993.831 203.336C942.246 232.683 890.936 264.303 837.363 293.083C818.903 303.081 800.285 312.735 781.443 321.858C740.57 341.646 692.938 358.634 653.362 336.983C613.288 315.058 596.799 263.107 579.053 217.915C558.365 165.257 530.746 114.49 491.28 76.5218C477.537 63.3038 462.205 51.7797 445.858 42.6402C415.283 25.5206 381.13 16.6977 347.202 20.6692C306.447 25.4425 269.156 47.7383 235.035 72.3076C165.929 122.001 104.9 183.248 54.108 254.469C38.9507 275.72 24.7075 297.852 11.4534 320.838" stroke="#FFCF0F" stroke-width="0.552088" stroke-miterlimit="10"/>
<path d="M1348.86 464.406C1349.58 378.417 1318.46 298.238 1265.7 220.353C1261.02 213.441 1256.3 206.563 1251.36 199.903C1235.04 177.965 1216.32 157.157 1193.11 146.879C1125.85 117.006 1054.53 170.453 995.87 202.567C944.842 230.503 893.922 261.117 840.434 289.423C822.088 299.134 803.631 308.623 784.939 317.565C744.398 336.958 697.341 353.712 658.071 333.176C618.305 312.377 601.313 262.609 583.103 219.337C561.868 168.92 533.939 120.291 494.551 83.9095C480.829 71.2465 465.576 60.2035 449.34 51.4463C418.979 35.0421 385.151 26.5645 351.541 30.3428C311.175 34.8817 274.162 56.1908 240.259 79.5226C171.564 126.704 110.942 184.387 60.0032 252.178C44.8031 272.406 30.4706 293.522 17.0701 315.542" stroke="#FFCF0F" stroke-width="0.552088" stroke-miterlimit="10"/>
<path d="M1351.13 459.904C1351.82 376.986 1319.24 301.794 1265.02 223.642C1260.32 216.866 1255.63 210.078 1250.7 203.525C1234.41 181.903 1215.85 161.367 1192.98 151.007C1126.66 120.842 1056.5 170.988 997.898 201.802C947.434 228.337 896.931 258.033 843.49 285.764C825.272 295.22 806.966 304.512 788.424 313.273C748.215 332.276 701.736 348.795 662.766 329.369C623.307 309.7 605.811 262.111 587.137 220.76C565.356 172.583 537.116 126.088 497.804 91.2975C484.107 79.1855 468.932 68.6276 452.803 60.2528C422.66 44.568 389.153 36.4358 355.861 40.0127C315.881 44.3131 279.146 64.6396 245.464 86.734C177.184 131.4 116.965 185.521 65.8766 249.88C50.6301 269.084 36.2083 289.185 22.6614 310.235" stroke="#FFCF0F" stroke-width="0.552088" stroke-miterlimit="10"/>
<path d="M1353.4 455.399C1354.07 375.552 1320.03 305.343 1264.34 226.927C1259.62 220.283 1254.96 213.594 1250.05 207.144C1233.78 185.835 1215.38 165.574 1192.86 155.135C1127.46 124.678 1058.48 171.527 999.929 201.038C950.037 226.183 899.952 254.954 846.553 282.11C828.465 291.311 810.305 300.405 791.916 308.986C752.039 327.594 706.135 343.879 667.469 325.567C628.317 307.025 610.321 261.619 591.179 222.187C568.856 176.247 540.301 131.894 501.064 98.6947C487.392 87.1377 472.292 77.0608 456.274 69.0684C426.349 54.099 393.16 46.3121 360.192 49.6957C320.601 53.7619 284.145 73.1057 250.681 93.9625C182.814 136.116 122.999 186.673 71.7646 247.603C56.4752 265.784 41.9607 284.869 28.2673 304.948" stroke="#FFCF0F" stroke-width="0.552088" stroke-miterlimit="10"/>
<path d="M1355.67 450.892C1356.31 374.117 1320.85 308.878 1263.67 230.208C1258.94 223.695 1254.29 217.101 1249.41 210.757C1233.16 189.764 1214.92 169.775 1192.74 159.254C1128.27 128.505 1060.48 172.061 1001.96 200.261C952.655 224.024 902.973 251.862 849.617 278.438C831.657 287.384 813.643 296.281 795.408 304.676C755.863 322.894 710.538 338.94 672.172 321.743C633.327 304.327 614.827 261.104 595.221 223.593C572.351 179.893 543.486 137.678 504.324 106.066C490.677 95.0638 475.655 85.4679 459.745 77.8619C430.034 63.6079 397.17 56.1664 364.52 59.3527C325.318 63.1844 289.137 81.5415 255.894 101.161C188.442 140.798 129.03 187.795 77.6491 245.292C62.3133 262.449 47.7094 280.518 33.8733 299.628" stroke="#FFCF0F" stroke-width="0.552088" stroke-miterlimit="10"/>
<path d="M1357.93 446.39C1358.55 372.686 1321.67 312.414 1262.99 233.497C1258.25 227.112 1253.62 220.616 1248.75 214.379C1232.53 193.699 1214.46 173.985 1192.62 163.386C1129.08 132.341 1062.48 172.62 1004 199.5C955.275 221.891 905.997 248.791 852.677 274.787C834.845 283.483 816.978 292.174 798.896 300.392C759.684 318.215 714.933 334.027 676.87 317.944C638.333 301.659 619.33 260.611 599.263 225.023C575.85 183.565 546.671 143.487 507.587 113.466C493.965 103.015 479.019 93.9045 463.219 86.6808C433.726 73.1422 401.183 66.0501 368.851 69.0391C330.038 72.6324 294.136 90.0069 261.107 108.389C194.069 145.514 135.061 188.946 83.5298 243.015C68.1511 259.147 53.4545 276.201 39.4719 294.341" stroke="#FFCF0F" stroke-width="0.552088" stroke-miterlimit="10"/>
<path d="M1360.2 441.884C1360.8 371.251 1322.53 315.933 1262.32 236.782C1257.56 230.524 1252.95 224.131 1248.1 217.997C1231.9 197.634 1214 178.195 1192.5 167.514C1129.89 136.177 1064.5 173.179 1006.03 198.731C957.91 219.761 909.021 245.712 855.744 271.124C838.044 279.564 820.32 288.059 802.388 296.096C763.508 313.528 719.336 329.102 681.573 314.137C643.342 298.978 623.836 260.114 603.305 226.446C579.346 187.228 549.853 149.288 510.847 120.854C497.25 110.958 482.382 102.329 466.689 95.4874C437.414 82.6682 405.192 75.9174 373.178 78.7131C334.755 82.072 299.131 98.4598 266.32 115.608C199.696 150.218 141.092 190.089 89.414 240.725C73.9889 255.834 59.2029 271.868 45.074 289.045" stroke="#FFCF0F" stroke-width="0.552088" stroke-miterlimit="10"/>
<path d="M1362.47 437.378C1363.04 369.817 1323.39 319.44 1261.65 240.067C1256.88 233.937 1252.28 227.642 1247.45 221.615C1231.27 201.564 1213.53 182.401 1192.38 171.638C1130.69 140.009 1066.53 173.747 1008.07 197.963C960.553 217.644 912.049 242.64 858.808 267.465C841.237 275.659 823.659 283.947 805.881 291.804C767.332 308.841 723.735 324.181 686.276 310.33C648.352 296.298 628.342 259.616 607.347 227.868C582.842 190.891 553.038 155.089 514.107 128.247C500.536 118.906 485.742 110.757 470.16 104.298C441.099 92.1942 409.199 85.7928 377.51 88.3871C339.476 91.5076 304.126 106.913 271.537 122.824C205.327 154.921 147.126 191.228 95.3023 238.435C79.8344 252.52 64.9556 267.539 50.6838 283.746" stroke="#FFCF0F" stroke-width="0.552088" stroke-miterlimit="10"/>
<path d="M1364.74 432.877C1365.29 368.386 1324.28 322.944 1260.97 243.352C1256.2 237.346 1251.62 231.154 1246.8 225.229C1230.65 205.495 1213.07 186.603 1192.26 175.762C1131.5 143.841 1068.56 174.323 1010.09 197.19C963.195 215.535 915.074 239.566 861.864 263.798C844.425 271.741 826.99 279.828 809.365 287.504C771.149 304.151 728.13 319.252 690.971 306.515C653.354 293.609 632.841 259.111 611.382 229.283C586.334 194.546 556.216 160.883 517.36 135.627C503.813 126.837 489.095 119.169 473.623 113.097C444.78 101.708 413.202 95.6523 381.83 98.0533C344.181 100.939 309.114 115.358 276.743 130.031C210.947 159.612 153.15 192.355 101.176 236.133C85.6649 249.194 70.6933 263.198 56.2751 278.434" stroke="#FFCF0F" stroke-width="0.552088" stroke-miterlimit="10"/>
<path d="M1367.01 428.37C1367.53 366.951 1325.18 326.425 1260.3 246.636C1255.51 240.753 1250.94 234.668 1246.15 228.846C1230.02 209.425 1212.6 190.808 1192.14 179.884C1132.31 147.672 1070.61 174.914 1012.13 196.42C965.855 213.441 918.105 236.494 864.931 260.138C847.625 267.834 830.332 275.716 812.861 283.211C774.977 299.463 732.533 314.334 695.681 302.707C658.371 290.932 637.358 258.608 615.431 230.709C589.837 198.209 559.408 166.687 520.631 143.018C507.109 134.783 492.469 127.596 477.105 121.911C448.479 111.237 417.222 105.527 386.168 107.73C348.909 110.382 314.117 123.814 281.967 137.254C216.585 164.323 159.191 193.501 107.071 233.846C91.5137 245.884 76.4528 258.872 61.8918 273.138" stroke="#FFCF0F" stroke-width="0.552088" stroke-miterlimit="10"/>
<path d="M1369.28 423.869C1369.77 365.52 1326.09 329.896 1259.62 249.926C1254.84 244.166 1250.28 238.172 1245.5 232.469C1229.42 213.327 1212.14 195.023 1192.02 184.017C1133.11 151.509 1072.66 175.523 1014.17 195.66C968.519 211.374 921.137 233.44 867.995 256.484C850.82 263.933 833.674 271.605 816.35 278.919C778.797 294.781 736.932 309.413 700.379 298.9C663.377 288.252 641.861 258.112 619.473 232.132C593.332 201.873 562.593 172.489 523.891 150.411C510.394 142.731 495.829 136.025 480.576 130.722C452.164 120.768 421.228 115.403 390.5 117.409C353.629 119.823 319.116 132.272 287.184 144.474C222.216 169.027 165.226 194.645 112.959 231.561C97.3589 242.575 82.2052 254.547 67.4978 267.847" stroke="#FFCF0F" stroke-width="0.552088" stroke-miterlimit="10"/>
<path d="M1371.55 419.362C1372.01 364.086 1327.03 333.345 1258.95 253.211C1254.16 247.57 1249.62 241.687 1244.85 236.087C1228.8 217.257 1211.67 199.229 1191.9 188.141C1133.92 155.34 1074.72 176.144 1016.2 194.887C971.19 209.306 924.165 230.372 871.059 252.82C854.02 260.023 837.013 267.49 819.842 274.623C782.622 290.09 741.331 304.488 705.082 295.089C668.387 285.567 646.367 257.61 623.515 233.55C596.832 205.532 565.778 178.286 527.151 157.795C513.675 150.666 499.193 144.445 484.043 139.524C455.849 130.286 425.235 125.266 394.824 127.075C358.343 129.254 324.108 140.716 292.393 151.681C227.84 173.722 171.253 195.775 118.836 229.258C103.19 239.249 87.9468 250.205 73.093 262.535" stroke="#FFCF0F" stroke-width="0.552088" stroke-miterlimit="10"/>
<path d="M1373.82 414.856C1374.26 362.65 1327.99 336.777 1258.27 256.495C1253.48 250.974 1248.94 245.197 1244.19 239.705C1228.17 221.187 1211.21 203.434 1191.78 192.268C1134.72 159.176 1076.78 176.78 1018.23 194.122C973.864 207.262 927.2 227.317 874.119 249.161C857.212 256.117 840.348 263.378 823.33 270.33C786.442 285.406 745.73 299.566 709.781 291.281C673.393 282.89 650.869 257.112 627.553 234.972C600.324 209.194 568.956 184.086 530.407 165.186C516.957 158.612 502.549 152.873 487.51 148.334C459.534 139.811 429.241 135.137 399.148 136.752C363.056 138.697 329.096 149.173 297.599 158.904C233.46 178.429 177.276 196.922 124.713 226.976C109.024 235.943 93.6883 245.884 78.6917 257.243" stroke="#FFCF0F" stroke-width="0.552088" stroke-miterlimit="10"/>
<path d="M1376.09 410.354C1376.5 361.219 1328.96 340.194 1257.6 259.78C1252.81 254.378 1248.28 248.708 1243.55 243.323C1227.55 225.118 1210.75 207.64 1191.66 196.392C1135.53 163.008 1078.87 177.434 1020.26 193.349C976.549 205.223 930.234 224.258 877.182 245.498C860.407 252.211 843.686 259.262 826.822 266.034C790.266 280.715 750.129 294.64 714.483 287.47C678.402 280.206 655.375 256.606 631.595 236.391C603.823 212.853 572.141 189.883 533.671 172.571C520.245 166.552 505.916 161.293 490.984 157.141C463.222 149.333 433.251 145.008 403.482 146.427C367.78 148.133 334.098 157.626 302.819 166.12C239.095 183.133 183.314 198.061 130.605 224.682C114.869 232.621 99.444 241.547 84.301 251.94" stroke="#FFCF0F" stroke-width="0.552088" stroke-miterlimit="10"/>
<path d="M1378.35 405.848C1378.74 359.785 1329.95 343.586 1256.92 263.065C1252.13 257.778 1247.61 252.22 1242.89 246.941C1226.91 229.052 1210.26 211.891 1191.53 200.519C1136.28 166.971 1080.94 178.113 1022.29 192.584C979.23 203.212 933.266 221.212 880.242 241.838C863.603 248.31 847.021 255.151 830.31 261.741C794.086 276.032 754.528 289.719 719.182 283.663C683.404 277.525 659.878 256.109 635.637 237.813C607.318 216.517 575.325 195.684 536.931 179.963C523.53 174.495 509.276 169.721 494.454 165.951C466.911 158.863 437.26 154.879 407.81 156.1C372.493 157.572 339.09 166.079 308.032 173.335C244.722 187.832 189.345 199.2 136.486 222.392C120.707 229.307 105.189 237.217 89.8997 246.644" stroke="#FFCF0F" stroke-width="0.552088" stroke-miterlimit="10"/>
<path d="M1380.63 401.346C1380.99 358.354 1330.96 346.962 1256.25 266.355C1251.46 261.183 1246.94 255.739 1242.24 250.563C1226.29 232.987 1209.8 216.102 1191.42 204.652C1137.09 170.807 1083.04 178.812 1024.33 191.824C981.934 201.223 936.312 218.174 883.313 238.188C866.81 244.421 850.367 251.048 833.807 257.458C797.915 271.354 758.931 284.806 723.889 279.869C688.418 274.861 664.391 255.624 639.683 239.249C610.818 220.192 578.514 201.498 540.195 187.363C526.819 182.45 512.64 178.158 497.929 174.77C470.603 168.398 441.274 164.763 412.141 165.787C377.214 167.021 344.089 174.548 313.25 180.567C250.353 192.552 195.376 200.355 142.374 220.114C126.549 226.006 110.945 232.901 95.5095 241.358" stroke="#FFCF0F" stroke-width="0.552088" stroke-miterlimit="10"/>
<path d="M1382.89 396.841C1383.23 356.916 1331.98 350.313 1255.57 269.64C1250.78 264.583 1246.27 259.251 1241.59 254.182C1225.65 236.922 1209.33 220.308 1191.29 208.776C1137.89 174.64 1085.12 179.532 1026.36 191.052C984.622 199.238 939.339 215.128 886.369 234.521C870.001 240.516 853.698 246.925 837.291 253.158C801.731 266.664 763.326 279.882 728.584 276.054C693.42 272.173 668.89 255.119 643.717 240.664C614.309 223.844 581.692 207.288 543.447 194.744C530.096 190.386 515.996 186.575 501.392 183.569C474.28 177.912 445.273 174.623 416.461 175.45C381.923 176.449 349.077 182.99 318.455 187.771C255.973 197.24 201.399 201.478 148.251 217.813C132.383 222.681 116.686 228.56 101.104 236.047" stroke="#FFCF0F" stroke-width="0.552088" stroke-miterlimit="10"/>
<path d="M1385.16 392.334C1385.47 355.48 1333.03 353.634 1254.9 272.921C1250.12 267.975 1245.6 262.761 1240.94 257.795C1225.03 240.848 1208.87 224.509 1191.18 212.899C1138.7 178.467 1087.22 180.271 1028.4 190.283C987.325 197.272 942.385 212.093 889.436 230.862C873.204 236.617 857.04 242.813 840.787 248.861C805.559 261.972 767.728 274.956 733.29 272.242C698.433 269.488 673.4 254.613 647.762 242.081C617.809 227.503 584.88 213.084 546.714 202.131C533.388 198.324 519.363 194.998 504.87 192.379C477.976 187.437 449.29 184.494 420.8 185.127C386.65 185.892 354.079 191.446 323.679 194.99C261.611 201.946 207.441 202.621 154.142 215.522C138.232 219.366 122.442 224.23 106.714 230.746" stroke="#FFCF0F" stroke-width="0.552088" stroke-miterlimit="10"/>
<path d="M1387.43 387.833C1387.71 354.05 1334.09 356.936 1254.23 276.21C1249.44 271.375 1244.93 266.277 1240.29 261.417C1224.4 244.787 1208.41 228.72 1191.05 217.027C1139.5 182.298 1089.32 181.044 1030.43 189.514C990.024 195.323 945.424 209.059 892.496 227.198C876.4 232.716 860.379 238.698 844.275 244.565C809.38 257.285 772.124 270.03 737.992 268.431C703.443 266.807 677.906 254.111 651.804 243.5C621.304 231.162 588.062 218.881 549.974 209.515C536.673 206.263 522.727 203.418 508.341 201.182C481.664 196.959 453.3 194.361 425.127 194.793C391.367 195.319 359.074 199.891 328.892 202.201C267.238 206.642 213.472 203.755 160.027 213.224C144.07 216.044 128.191 219.892 112.32 225.439" stroke="#FFCF0F" stroke-width="0.552088" stroke-miterlimit="10"/>
<path d="M1389.7 383.326C1389.96 352.615 1335.16 360.208 1253.55 279.494C1248.77 274.766 1244.26 269.787 1239.63 265.035C1223.77 248.721 1207.96 232.888 1190.93 221.154C1140.37 186.015 1091.42 181.846 1032.46 188.749C992.72 193.399 948.462 206.033 895.556 223.543C879.596 228.826 863.714 234.59 847.764 240.276C813.2 252.602 776.523 265.113 742.691 264.628C708.449 264.13 682.408 253.618 655.846 244.926C624.803 234.829 591.247 224.686 553.234 216.911C539.958 214.214 526.086 211.85 511.811 209.996C485.349 206.489 457.309 204.236 429.455 204.475C396.08 204.767 364.066 208.352 334.101 209.425C272.862 211.353 219.499 204.902 165.907 210.942C149.907 212.738 133.936 215.567 117.918 220.151" stroke="#FFCF0F" stroke-width="0.552088" stroke-miterlimit="10"/>
<path d="M1391.97 378.825C1392.2 351.184 1336.26 363.456 1252.88 282.784C1248.11 278.167 1243.59 273.307 1238.98 268.657C1223.14 252.66 1207.5 237.099 1190.81 225.283C1141.18 189.847 1093.52 182.677 1034.5 187.984C995.427 191.496 951.512 203.016 898.624 219.884C882.799 224.933 867.056 230.479 851.256 235.984C817.024 247.92 780.922 260.192 747.394 260.821C713.458 261.45 686.915 253.12 659.888 246.349C628.299 238.492 594.432 230.487 556.494 224.3C543.24 222.154 529.45 220.271 515.282 218.803C489.038 216.011 461.316 214.104 433.786 214.149C400.801 214.207 369.065 216.805 339.318 216.64C278.493 216.053 225.533 206.041 171.792 208.648C155.745 209.421 139.685 211.234 123.524 214.848" stroke="#FFCF0F" stroke-width="0.552088" stroke-miterlimit="10"/>
<path d="M1394.24 374.319C1394.44 349.75 1337.36 366.668 1252.2 286.065C1247.44 281.555 1242.92 276.814 1238.33 272.271C1222.51 256.591 1207.04 241.301 1190.69 229.407C1141.99 193.679 1095.62 183.536 1036.53 187.212C998.123 189.601 954.554 199.99 901.684 216.221C885.995 221.036 870.391 226.36 854.745 231.688C820.845 243.229 785.321 255.267 752.093 257.01C718.465 258.77 691.421 252.615 663.927 247.768C631.791 242.152 597.613 236.285 559.754 231.688C546.525 230.097 532.81 228.695 518.753 227.614C492.723 225.538 465.326 223.98 438.114 223.823C405.518 223.642 374.06 225.258 344.531 223.856C284.12 220.756 231.564 207.181 177.676 206.358C161.587 206.108 145.434 206.905 129.127 209.549" stroke="#FFCF0F" stroke-width="0.552088" stroke-miterlimit="10"/>
<path d="M1396.51 369.813C1396.69 348.315 1338.5 369.85 1251.53 289.35C1246.77 284.943 1242.24 280.338 1237.68 275.889C1221.85 260.558 1206.57 245.507 1190.57 233.534C1142.79 197.515 1097.71 184.433 1038.56 186.447C1000.82 187.73 957.596 196.985 904.747 212.562C889.197 217.147 873.729 222.249 858.236 227.396C824.669 238.546 789.72 250.346 756.795 253.203C723.474 256.089 695.927 252.118 667.969 249.19C635.29 245.811 600.798 242.086 563.014 239.076C549.81 238.04 536.17 237.119 522.223 236.42C496.411 235.064 469.335 233.847 442.441 233.497C410.234 233.082 379.052 233.711 349.744 231.076C289.747 225.46 237.595 208.324 183.561 204.068C167.425 202.794 151.182 202.576 134.729 204.249" stroke="#FFCF0F" stroke-width="0.552088" stroke-miterlimit="10"/>
<path d="M1398.77 365.31C1398.93 346.883 1339.64 373.003 1250.85 292.638C1246.1 288.338 1241.57 283.857 1237.03 279.507C1221.23 264.492 1206.11 249.716 1190.45 237.657C1143.6 201.346 1099.8 185.361 1040.6 185.674C1003.51 185.871 960.642 193.97 907.811 208.899C892.397 213.253 877.068 218.133 861.729 223.095C828.493 233.85 794.123 245.42 761.498 249.387C728.484 253.4 700.433 251.611 672.011 250.604C638.786 249.465 603.983 247.878 566.274 246.456C553.095 245.971 539.534 245.535 525.694 245.218C500.1 244.577 473.342 243.709 446.769 243.158C414.951 242.509 384.048 242.151 354.958 238.278C295.375 230.15 243.626 209.45 189.442 201.765C173.263 199.467 156.928 198.234 140.331 198.941" stroke="#FFCF0F" stroke-width="0.552088" stroke-miterlimit="10"/>
<path d="M1401.05 360.804C1401.17 345.448 1340.8 376.119 1250.18 295.923C1245.44 291.725 1240.9 287.367 1236.38 283.124C1220.6 268.422 1205.65 253.921 1190.33 241.785C1144.41 205.182 1101.88 186.327 1042.63 184.909C1006.19 184.037 963.684 190.973 910.874 205.239C895.596 209.367 880.406 214.021 865.217 218.802C832.314 229.167 798.518 240.498 766.196 245.584C733.49 250.723 704.935 251.118 676.053 252.03C642.285 253.132 607.168 253.683 569.534 253.852C556.38 253.921 542.893 253.967 529.164 254.032C503.784 254.106 477.351 253.584 451.1 252.84C419.671 251.952 389.042 250.612 360.174 245.501C301.005 234.857 249.66 210.592 195.329 199.479C179.108 196.157 162.679 193.908 145.937 193.645" stroke="#FFCF0F" stroke-width="0.552088" stroke-miterlimit="10"/>
<path d="M1403.31 356.303C1403.42 344.018 1341.98 379.203 1249.51 299.213C1244.77 295.118 1240.23 290.883 1235.73 286.747C1219.97 272.362 1205.18 258.132 1190.21 245.913C1145.21 209.014 1103.95 187.331 1044.66 184.144C1008.87 182.22 966.733 187.98 913.938 201.585C898.799 205.486 883.745 209.914 868.709 214.515C836.138 224.485 802.921 235.581 770.899 241.781C738.499 248.051 709.442 250.621 680.095 253.458C645.781 256.8 610.35 259.489 572.794 261.244C559.665 261.869 546.257 262.396 532.632 262.844C507.47 263.633 481.358 263.456 455.424 262.515C424.381 261.392 394.035 259.065 365.384 252.722C306.629 239.565 255.687 211.736 201.21 197.19C184.943 192.844 168.425 189.58 151.536 188.346" stroke="#FFCF0F" stroke-width="0.552088" stroke-miterlimit="10"/>
<path d="M1405.58 351.797C1405.66 342.583 1343.17 382.245 1248.83 302.494C1244.11 298.497 1239.56 294.394 1235.08 290.361C1219.34 276.288 1204.72 262.334 1190.09 250.037C1146.02 212.846 1106.01 188.367 1046.7 183.372C1011.54 180.411 969.783 184.987 917.002 197.918C901.998 201.593 887.087 205.791 872.201 210.214C839.962 219.794 807.32 230.652 775.605 237.966C743.513 245.362 713.952 250.115 684.14 254.872C649.28 260.455 613.539 265.282 576.061 268.628C562.957 269.804 549.624 270.816 536.11 271.65C511.165 273.159 485.371 273.328 459.759 272.189C429.105 270.828 399.037 267.518 370.601 259.937C312.26 244.269 261.722 212.875 207.095 194.9C190.784 189.53 174.174 185.246 157.142 183.047" stroke="#FFCF0F" stroke-width="0.552088" stroke-miterlimit="10"/>
<path d="M1407.85 347.29C1407.9 341.148 1344.38 385.25 1248.16 305.778C1243.44 301.881 1238.89 297.905 1234.43 293.979C1218.72 280.222 1204.26 266.544 1189.97 254.16C1146.83 216.677 1108.04 189.44 1048.73 182.602C1014.2 178.623 972.825 182.006 920.066 194.258C905.201 197.712 890.426 201.679 875.694 205.922C843.786 215.107 811.722 225.73 780.308 234.159C748.522 242.681 718.458 249.617 688.182 256.294C652.78 264.118 616.724 271.083 579.321 276.016C566.242 277.747 552.988 279.239 539.58 280.456C514.85 282.681 489.381 283.195 464.09 281.862C433.826 280.267 404.032 275.971 375.817 267.152C317.891 248.968 267.756 214.013 212.983 192.605C196.626 186.212 179.926 180.913 162.748 177.747" stroke="#FFCF0F" stroke-width="0.552088" stroke-miterlimit="10"/>
<path d="M1410.12 342.788C1410.14 339.717 1345.6 388.219 1247.48 309.067C1242.77 305.268 1238.22 301.424 1233.77 297.601C1218.09 284.157 1203.79 270.754 1189.84 258.292C1147.63 220.517 1110.06 190.558 1050.76 181.838C1016.84 176.851 975.878 179.108 923.122 190.599C908.397 193.851 893.757 197.568 879.178 201.63C847.603 210.424 816.114 220.809 785.003 230.351C753.525 240.005 722.96 249.12 692.217 257.717C656.268 267.781 619.901 276.884 582.574 283.408C569.52 285.694 556.341 287.668 543.044 289.267C518.531 292.207 493.384 293.066 468.411 291.536C438.535 289.707 409.021 284.428 381.023 274.372C323.511 253.675 273.78 215.156 218.86 190.319C202.46 182.902 185.668 176.587 168.346 172.451" stroke="#FFCF0F" stroke-width="0.552088" stroke-miterlimit="10"/>
<path d="M1412.39 338.283C1412.39 338.283 1346.84 391.146 1246.81 312.352C1146.77 233.558 1112.34 148.544 926.189 186.94C797.553 213.475 676.202 278.557 546.521 298.074C493.165 306.103 437.246 302.321 386.243 281.587C329.145 258.375 279.817 216.295 224.748 188.025C208.301 179.585 191.423 172.254 173.952 167.148" stroke="#FFCF0F" stroke-width="0.552088" stroke-miterlimit="10"/>
</svg>
