<svg width="82" height="81" viewBox="0 0 82 81" fill="none" xmlns="http://www.w3.org/2000/svg">
<path d="M25.5574 29.2935C30.6446 43.1714 35.9112 48.7085 49.3093 54.6063L43.5029 62.7609C28.1177 55.3951 20.4547 42.9788 16.8456 33.2893L25.5574 29.2935Z" fill="white"/>
<path d="M29.8252 10.134C32.5455 10.1233 34.6139 12.3869 34.4284 14.9499C34.1366 18.9834 34.4473 21.8934 35.2838 25.5005C35.7433 27.482 34.7038 29.4944 33.0517 30.7905C30.825 32.5376 29.1239 34.7637 27.7719 36.6801C25.8979 39.3362 19.4488 39.1454 18.0226 36.2518C15.0915 30.305 13.1051 19.349 17.3853 11.9469C18.0577 10.7842 19.4114 10.1747 20.8141 10.1692L29.8252 10.134Z" fill="white"/>
<path d="M71.1178 54.1403C71.4561 51.5912 69.3255 49.3798 66.609 49.2454C62.334 49.0339 59.3124 48.3927 55.6212 47.1746C53.5937 46.5055 51.3533 47.2381 49.7921 48.6311C47.6878 50.5086 45.1432 51.8358 42.9662 52.873C39.9487 54.3105 39.3738 60.3798 42.2439 62.065C48.1426 65.5282 59.4204 68.7081 67.7161 65.5853C69.0191 65.0948 69.8226 63.8989 69.9971 62.5844L71.1178 54.1403Z" fill="white"/>
</svg>
