<svg width="22" height="22" viewBox="0 0 22 22" fill="none" xmlns="http://www.w3.org/2000/svg">
<path d="M19.25 4.33333H15.3542V3.29167C15.3542 2.02783 14.2227 1 12.8333 1H9.16667C7.77734 1 6.64583 2.02783 6.64583 3.29167V4.33333H2.75C2.37044 4.33333 2.0625 4.61328 2.0625 4.95833C2.0625 5.30338 2.37044 5.58333 2.75 5.58333H2.97917V18.2917C2.97917 19.5555 4.11068 20.5833 5.5 20.5833H16.5C17.8893 20.5833 19.0208 19.5555 19.0208 18.2917V5.58333H19.25C19.6296 5.58333 19.9375 5.30338 19.9375 4.95833C19.9375 4.61328 19.6296 4.33333 19.25 4.33333ZM8.02083 3.29167C8.02083 2.71712 8.53467 2.25 9.16667 2.25H12.8333C13.4653 2.25 13.9792 2.71712 13.9792 3.29167V4.33333H8.02083V3.29167ZM17.6458 18.2917C17.6458 18.8662 17.132 19.3333 16.5 19.3333H5.5C4.868 19.3333 4.35417 18.8662 4.35417 18.2917V5.58333H17.6458V18.2917Z" fill="white"/>
<path d="M7.33333 7.66667C6.95378 7.66667 6.64583 7.94661 6.64583 8.29167V16.625C6.64583 16.9701 6.95378 17.25 7.33333 17.25C7.71289 17.25 8.02083 16.9701 8.02083 16.625V8.29167C8.02083 7.94661 7.71289 7.66667 7.33333 7.66667Z" fill="white"/>
<path d="M11 7.66667C10.6204 7.66667 10.3125 7.94661 10.3125 8.29167V16.625C10.3125 16.9701 10.6204 17.25 11 17.25C11.3796 17.25 11.6875 16.9701 11.6875 16.625V8.29167C11.6875 7.94661 11.3796 7.66667 11 7.66667Z" fill="white"/>
<path d="M13.9792 8.29167V16.625C13.9792 16.9701 14.2871 17.25 14.6667 17.25C15.0462 17.25 15.3542 16.9701 15.3542 16.625V8.29167C15.3542 7.94661 15.0462 7.66667 14.6667 7.66667C14.2871 7.66667 13.9792 7.94661 13.9792 8.29167Z" fill="white"/>
</svg>
